<svg xmlns="http://www.w3.org/2000/svg" width="206.296" height="54.581" viewBox="0 0 206.296 54.581">
  <g id="Group_3" data-name="Group 3" transform="translate(-66.528 -89.076)">
    <g id="Group_1" data-name="Group 1" transform="translate(66.528 89.076)">
      <path id="Path_1" data-name="Path 1" d="M67.084,108.266c0-2.782-.389-8.679-.556-10.015h17.8c9.681,0,14.3,5.9,14.3,13.131s-5.23,12.8-14.188,12.8H79.436v2.615c0,3,.334,9.236.5,10.516-4.284,0-12.685.334-13.075.334.056-1.891.222-5.174.222-7.233ZM82.5,116.111c3.06,0,4.117-2.615,4.117-4.618a4.348,4.348,0,0,0-4.507-4.618h-2.67v9.235Z" transform="translate(-66.528 -94.912)" fill="#fff"/>
      <path id="Path_2" data-name="Path 2" d="M162.546,100.594a100.083,100.083,0,0,0-.612-10.015,52.678,52.678,0,0,0,9.125-1.5h3.5V124.8a49.3,49.3,0,0,0,.334,6.677c-4.507-.055-10.571.167-12.519.334.056-.945.167-5.174.167-7.233Z" transform="translate(-127.218 -89.076)" fill="#fff"/>
      <path id="Path_3" data-name="Path 3" d="M222.615,134.484v-.946c0-2.058-.223-3.95-2.671-3.95-2.17,0-2.781,1.78-2.559,3.505A54.074,54.074,0,0,0,207.2,134.15a10.432,10.432,0,0,1-.334-2.559c0-8.179,7.344-9.793,13.52-9.793,6.343,0,13.8,2.448,13.8,11.239v8.235c0,2.225.668,3.226,2.114,3.226h.334a25.924,25.924,0,0,0,.445,5.341,9.169,9.169,0,0,1-6.621,2.838c-2.782,0-5.62-.835-7.122-3.951a11.988,11.988,0,0,1-8.957,3.951c-4.841,0-8.568-2.727-8.568-7.956C205.812,141.049,208.705,135.874,222.615,134.484Zm0,5.063c-2.059.278-5.453,1.113-5.453,3.227,0,1.5,1.112,2.058,2.448,2.058a5.859,5.859,0,0,0,3-1Z" transform="translate(-155.13 -109.891)" fill="#fff"/>
      <path id="Path_4" data-name="Path 4" d="M303.537,139.561l3.227-17.192c1.669.056,3.339.056,4.952.056,2.337,0,4.618-.056,6.954-.167-2.5,8.234-7.512,24.926-9.959,32.492-2.282,7.121-6.843,10.015-12.852,10.015a16.178,16.178,0,0,1-8.457-2.448,20.538,20.538,0,0,0,2.726-7.288,7.837,7.837,0,0,0,4.173,1.335c2.281,0,3.06-1.669,3.394-3.784-1.279-3.283-10.46-26.038-12.073-30.212,1.78.056,3.449.056,5.174.056q3.505,0,7.01-.167l4.4,17.3a32.482,32.482,0,0,1,.723,3.506C303.037,142.621,303.426,140.173,303.537,139.561Z" transform="translate(-205.899 -110.184)" fill="#fff"/>
      <path id="Path_5" data-name="Path 5" d="M381.89,134.15c0-3.394-.334-8.346-.556-10.349,2.114,0,5.564-.835,9.069-1.669h3.561V125.8a12.794,12.794,0,0,1,9.514-4.006c3.06,0,6.677,1.057,8.178,4.618a12.818,12.818,0,0,1,10.015-4.618c4.061,0,8.9,1.836,8.9,8.569v16.191a45.073,45.073,0,0,0,.334,5.731c-3.283,0-8.4.055-12.518.334.111-2,.167-4.84.167-7.233V133.315c0-2.392-1.335-2.948-2.837-2.948a6.6,6.6,0,0,0-3.394,1.057v15.134a43,43,0,0,0,.39,5.731c-3.449,0-8.9.055-12.518.334.055-1.279.111-5.174.111-7.233V133.315c0-2.392-1.28-2.948-2.782-2.948a7.076,7.076,0,0,0-3.561,1.113v14.132a60.638,60.638,0,0,0,.334,6.677c-3.283,0-8.735.055-12.574.334.056-2.169.167-5.62.167-7.233Z" transform="translate(-266.784 -109.891)" fill="#fff"/>
    </g>
    <g id="Group_2" data-name="Group 2" transform="translate(228.469 92.09)">
      <path id="Path_6" data-name="Path 6" d="M560.426,126.419c0,6.228-6.506,10.9-16.516,10.9-10.121,0-16.182-4.56-16.182-10.677,0-4.616,3.281-7.785,7.785-9.453-4.06-1.78-6.673-4.949-6.673-8.675,0-5.505,5.005-11.01,15.182-11.01,10.4,0,15.237,5.505,15.237,11.01,0,3.726-2.836,6.84-6.561,8.619C556.812,118.745,560.426,121.748,560.426,126.419Zm-20.3-1c0,1.779,1.668,3.392,4,3.392a3.613,3.613,0,0,0,3.892-3.392c0-2.114-2.058-3.559-3.892-4.449C542.3,121.859,540.129,123.249,540.129,125.418Zm7.563-16.516c0-1.724-1.279-3.114-3.615-3.114s-3.726,1.391-3.726,3.114c0,2,1.891,3.5,3.615,4.449C546.135,112.183,547.692,110.793,547.692,108.9Z" transform="translate(-521.851 -97.45)" fill="#fff"/>
      <path id="Path_7" data-name="Path 7" d="M522.718,97.538s-4.693.98-8.045,1.856-3.919,4.487-2.011,7.065,5.208,7.013,6.652,9.127,3.043,1.754,3.713,0a42.434,42.434,0,0,0,2.32-9.024,56.692,56.692,0,0,0,0-8.045C525.254,97.127,523.767,97.263,522.718,97.538Z" transform="translate(-511.576 -97.36)" fill="#f6bfd5"/>
      <path id="Path_8" data-name="Path 8" d="M598.057,97.623s4.685.978,8.032,1.854,3.913,4.479,2.008,7.054-5.2,7-6.642,9.113-3.038,1.751-3.707,0a42.381,42.381,0,0,1-2.317-9.01,56.606,56.606,0,0,1,0-8.032C595.525,97.213,597.01,97.349,598.057,97.623Z" transform="translate(-564.827 -97.414)" fill="#f6bfd5"/>
    </g>
  </g>
</svg>
